<svg width="26" height="26" viewBox="0 0 26 26" fill="none" xmlns="http://www.w3.org/2000/svg">
<rect x="1.24854" y="1.573" width="23.6757" height="23.6757" rx="11.8378" stroke="white" stroke-width="1.18378"/>
<path d="M17.8466 16.6931L17.5824 9.98755C17.5748 9.86262 17.5426 9.73849 17.4877 9.62227C17.3824 9.38816 17.1921 9.19783 16.958 9.09257C16.8418 9.03767 16.7176 9.00548 16.5927 8.99784L9.88711 8.73366C9.76207 8.72873 9.63922 8.74848 9.52558 8.79178C9.41194 8.83508 9.30973 8.90109 9.22479 8.98602C9.05326 9.15756 8.96248 9.3958 8.97243 9.64834C8.98238 9.90087 9.09224 10.147 9.27785 10.3326C9.46345 10.5182 9.7096 10.6281 9.96214 10.638L14.3809 10.8054L8.84769 16.3386C8.67685 16.5094 8.58644 16.7467 8.59635 16.9982C8.60626 17.2497 8.71567 17.4949 8.90052 17.6797C9.08537 17.8646 9.33052 17.974 9.58202 17.9839C9.83353 17.9938 10.0708 17.9034 10.2416 17.7326L15.7748 12.1994L15.9422 16.6181C15.9466 16.7433 15.9758 16.8683 16.028 16.9859C16.0802 17.1035 16.1545 17.2115 16.2465 17.3035C16.3385 17.3955 16.4465 17.4698 16.5641 17.522C16.6817 17.5742 16.8067 17.6034 16.9319 17.6078C17.0571 17.6133 17.1802 17.5939 17.2941 17.5508C17.408 17.5076 17.5104 17.4417 17.5954 17.3566C17.6804 17.2716 17.7464 17.1692 17.7895 17.0553C17.8326 16.9414 17.852 16.8183 17.8466 16.6931Z" fill="white"/>
</svg>
