<svg width="47" height="47" viewBox="0 0 47 47" fill="none" xmlns="http://www.w3.org/2000/svg">
<rect y="0.25" width="46.5" height="46.5" rx="23.25" fill="#00BF63"/>
<path fill-rule="evenodd" clip-rule="evenodd" d="M23.2499 29.8755C22.7218 29.8755 22.2937 29.4474 22.2937 28.9192L22.2937 20.4559L19.7954 23.207C19.4294 23.5877 18.8241 23.5996 18.4434 23.2335C18.0627 22.8675 18.0508 22.2621 18.4169 21.8815L22.5606 17.419C22.7409 17.2315 22.9898 17.1255 23.2499 17.1255C23.51 17.1255 23.7589 17.2315 23.9392 17.419L28.0829 21.8815C28.449 22.2621 28.4371 22.8675 28.0564 23.2335C27.6757 23.5996 27.0704 23.5877 26.7044 23.207L24.2062 20.4559V28.9192C24.2062 29.4474 23.778 29.8755 23.2499 29.8755Z" fill="white"/>
</svg>
